<mxfile host="app.diagrams.net" modified="2024-03-02T23:42:28.464Z" agent="Mozilla/5.0 (Windows NT 10.0; Win64; x64; rv:123.0) Gecko/20100101 Firefox/123.0" version="23.1.1" etag="i-q8x4tM_ACUcDeva-_D" type="github">
  <diagram name="Page-1" id="X3vGCBdBJ1L1QAPwVaoR">
    <mxGraphModel>
      <root>
        <mxCell id="0" />
        <mxCell id="1" parent="0" />
      </root>
    </mxGraphModel>
  </diagram>
</mxfile>
